<svg width="33" height="20" viewBox="0 0 33 20" fill="none" xmlns="http://www.w3.org/2000/svg">
<path fill-rule="evenodd" clip-rule="evenodd" d="M0 5C0 2.23858 2.23858 0 5 0H27.6953C30.4567 0 32.6953 2.23858 32.6953 5V10.6665C32.6953 12.8705 31.2693 14.7414 29.2896 15.4069V19.0723L24.6188 15.6665H5C2.23858 15.6665 0 13.4279 0 10.6665V5ZM8.47658 10.2929C9.81414 10.2929 10.8985 9.20863 10.8985 7.87106C10.8985 6.5335 9.81414 5.44919 8.47658 5.44919C7.13902 5.44919 6.05471 6.5335 6.05471 7.87106C6.05471 9.20863 7.13902 10.2929 8.47658 10.2929ZM16.3476 10.2929C17.6852 10.2929 18.7695 9.20864 18.7695 7.87108C18.7695 6.53351 17.6852 5.4492 16.3476 5.4492C15.0101 5.4492 13.9258 6.53351 13.9258 7.87108C13.9258 9.20864 15.0101 10.2929 16.3476 10.2929ZM26.6406 7.87108C26.6406 9.20864 25.5563 10.2929 24.2187 10.2929C22.8812 10.2929 21.7969 9.20864 21.7969 7.87108C21.7969 6.53351 22.8812 5.4492 24.2187 5.4492C25.5563 5.4492 26.6406 6.53351 26.6406 7.87108Z" fill="white"/>
</svg>
